<svg height="320" viewBox="0 0 1440 320" class="wave" xmlns="http://www.w3.org/2000/svg"><path fill="orange" d="M0 0h1440v320H0z"/><path fill="#ff0" fill-opacity=".6" d="m0 160 48-26.7C96 107 192 53 288 37.3 384 21 480 43 576 58.7 672 75 768 85 864 85.3c96-.3 192-10.3 288-16 96-5.3 192-5.3 240-5.3h48v256H0Z"><animate attributeName="d" values="M 0 160 L 48 133.3 C 96 107 192 53 288 37.3 C 384 21 480 43 576 58.7 C 672 75 768 85 864 85.3 C 960 85 1056 75 1152 69.3 C 1248 64 1344 64 1392 64 L 1440 64 L 1440 320 L 1392 320 C 1344 320 1248 320 1152 320 C 1056 320 960 320 864 320 C 768 320 672 320 576 320 C 480 320 384 320 288 320 C 192 320 96 320 48 320 L 0 320 Z;M 0 170 L 48 140.7 C 96 110 192 60 288 50 C 384 40 480 55 576 75 C 672 95 768 110 864 110 C 960 110 1056 90 1152 80 C 1248 70 1344 70 1392 70 L 1440 70 L 1440 320 L 1392 320 C 1344 320 1248 320 1152 320 C 1056 320 960 320 864 320 C 768 320 672 320 576 320 C 480 320 384 320 288 320 C 192 320 96 320 48 320 L 0 320 Z;M 0 160 L 48 133.3 C 96 107 192 53 288 37.3 C 384 21 480 43 576 58.7 C 672 75 768 85 864 85.3 C 960 85 1056 75 1152 69.3 C 1248 64 1344 64 1392 64 L 1440 64 L 1440 320 L 1392 320 C 1344 320 1248 320 1152 320 C 1056 320 960 320 864 320 C 768 320 672 320 576 320 C 480 320 384 320 288 320 C 192 320 96 320 48 320 L 0 320 Z" repeatCount="indefinite" dur="5s" calcMode="spline" keyTimes="0; 0.5; 1" keySplines="0.42 0 0.58 1; 0.42 0 0.58 1"/></path><path fill="red" fill-opacity=".4" d="m0 160 48-26.7C96 107 192 53 288 37.3 384 21 480 43 576 58.7 672 75 768 85 864 85.3c96-.3 192-10.3 288-16 96-5.3 192-5.3 240-5.3h48v256H0Z"><animate attributeName="d" values="M 0 160 L 48 133.3 C 96 107 192 53 288 37.3 C 384 21 480 43 576 58.7 C 672 75 768 85 864 85.3 C 960 85 1056 75 1152 69.3 C 1248 64 1344 64 1392 64 L 1440 64 L 1440 320 L 1392 320 C 1344 320 1248 320 1152 320 C 1056 320 960 320 864 320 C 768 320 672 320 576 320 C 480 320 384 320 288 320 C 192 320 96 320 48 320 L 0 320 Z;M 0 150 L 48 125.3 C 96 100 192 50 288 37.3 C 384 24 480 40 576 53.3 C 672 67 768 77 864 74.7 C 960 72 1056 58 1152 53.3 C 1248 48 1344 53 1392 53 L 1440 53 L 1440 320 L 1392 320 C 1344 320 1248 320 1152 320 C 1056 320 960 320 864 320 C 768 320 672 320 576 320 C 480 320 384 320 288 320 C 192 320 96 320 48 320 L 0 320 Z;M 0 160 L 48 133.3 C 96 107 192 53 288 37.3 C 384 21 480 43 576 58.7 C 672 75 768 85 864 85.3 C 960 85 1056 75 1152 69.3 C 1248 64 1344 64 1392 64 L 1440 64 L 1440 320 L 1392 320 C 1344 320 1248 320 1152 320 C 1056 320 960 320 864 320 C 768 320 672 320 576 320 C 480 320 384 320 288 320 C 192 320 96 320 48 320 L 0 320 Z" repeatCount="indefinite" dur="2s" calcMode="spline" keyTimes="0; 0.5; 1" keySplines="0.42 0 0.58 1; 0.42 0 0.58 1"/></path></svg>